<?xml version="1.0" encoding="utf-8"?>
<!-- Generator: Adobe Illustrator 22.1.0, SVG Export Plug-In . SVG Version: 6.00 Build 0)  -->
<svg version="1.1" id="レイヤー_1" xmlns="http://www.w3.org/2000/svg" xmlns:xlink="http://www.w3.org/1999/xlink" x="0px"
	 y="0px" viewBox="0 0 274 274" style="enable-background:new 0 0 274 274;" xml:space="preserve">
<style type="text/css">
	.st0{opacity:0.6;fill:#FFFFFF;enable-background:new    ;}
</style>
<path class="st0" d="M216.9,251.2h22.8V115c-13.2-8.6-28.7-17.2-43.6-23.4c3.8-6.2,6.6-13.6,8-21.4c20.8,8.6,39.9,20,58.4,32.7
	v148.4H274V274H0v-22.8h11.4V102.8C29.9,90.4,49.1,79,69.9,70.4c1.6,7.6,4.4,14.8,8.3,21.3c-15.5,6.4-29.8,14.5-43.8,23.3l-0.1,0.1
	v136.1h22.8v-57.1h159.8L216.9,251.2L216.9,251.2z M79.9,262.6h34.3v-45.7H79.9V262.6z M125.6,262.6h22.8v-45.7h-22.8
	C125.6,216.9,125.6,262.6,125.6,262.6z M159.8,262.6h34.3v-45.7h-34.3V262.6z M57.1,182.7h22.8v-22.8H57.1V182.7z M102.8,182.7h22.8
	v-22.8h-22.8V182.7z M148.4,182.7h22.8v-22.8h-22.8V182.7z M194.1,182.7h22.8v-22.8h-22.8V182.7z M57.1,148.4h22.8v-22.8H57.1V148.4
	z M102.8,148.4h22.8v-22.8h-22.8V148.4z M148.4,148.4h22.8v-22.8h-22.8V148.4z M194.1,148.4h22.8v-22.8h-22.8V148.4z M137,0
	c31.5,0,57.1,25.6,57.1,57.1s-25.6,57.1-57.1,57.1S79.9,88.6,79.9,57.1S105.5,0,137,0 M148.4,45.7V22.8h-22.8v22.8h-22.8v22.8h22.8
	v22.8h22.8V68.5h22.8V45.7H148.4z"/>
</svg>
