<?xml version="1.0" encoding="utf-8"?>
<!-- Generator: Adobe Illustrator 22.1.0, SVG Export Plug-In . SVG Version: 6.00 Build 0)  -->
<svg version="1.1" id="_x32_" xmlns="http://www.w3.org/2000/svg" xmlns:xlink="http://www.w3.org/1999/xlink" x="0px" y="0px"
	 viewBox="0 0 512 512" style="enable-background:new 0 0 512 512;" xml:space="preserve">
<style type="text/css">
	.st0{opacity:0.6;}
	.st1{fill:#FFFFFF;}
</style>
<g class="st0">
	<path class="st1" d="M453,429.8c-2-7.5-4.8-14.3-8.3-20.3c-6.1-10.5-14.2-18.7-23.2-25.2c-6.7-4.9-13.9-8.8-21.2-12.3
		c-11-5.1-22.1-9-32.5-12.9c-10.3-3.8-19.8-7.5-27.1-11.8c-2.7-1.6-5.1-3.3-7.2-5c-3.1-2.6-5.6-5.4-7.3-8.5c-1.8-3.1-2.9-6.6-3.4-11
		c-0.3-3.1-0.5-6-0.5-8.8c0-8.3,1.2-15.4,2.8-22.7c4.6-5.2,8.8-11.4,12.8-18.8c4-7.5,7.8-16.2,11.6-26.5c2.4-1.1,4.9-2.4,7.3-4
		c5.4-3.7,10.6-8.8,14.9-15.6s7.8-15.3,10.1-25.7c0.7-2.9,1-5.8,1-8.6c0-5.9-1.4-11.6-3.8-16.6c-1.6-3.5-3.7-6.7-6.1-9.6
		c1.2-4.6,2.7-10.7,4.1-17.9c1.8-10,3.4-21.9,3.4-34.5c0-8.1-0.6-16.5-2.3-24.8c-1.2-6.2-3-12.4-5.6-18.3
		c-3.8-8.9-9.4-17.2-17.2-24.1c-7.2-6.4-16.2-11.5-27.1-14.8c-4.6-5.5-9.4-10.2-14.3-14.1c-8.3-6.6-17-11-25.9-13.7
		C279.2,1,270.2,0,261.2,0c-4.7,0-9.5,0.3-14.2,0.7c-4.4,0.4-8.1,0.9-11.4,1.4c-4.9,0.8-9,1.9-12.9,3.3c-4,1.4-7.8,2.9-12.7,4.9
		c-1.9,0.7-4.4,1.8-7.4,3.3c-5.2,2.6-12,6.5-19.2,11.9c-10.8,8.1-22.7,19.4-32,34.8c-4.6,7.7-8.6,16.4-11.4,26.2
		c-2.8,9.7-4.4,20.5-4.4,32.3c0,7.3,0.6,15.1,2,23.2c0,0.6,0,1.1,0.1,1.7c0.1,1,0.2,2.1,0.3,3.2c0.2,1.6,0.4,3.3,0.5,4.7
		c0.1,0.7,0.1,1.3,0.2,1.8c0,0.3,0,0.5,0,0.6v0.2l0,0v0.9l2,8.8c-2.9,3.1-5.3,6.6-7.3,10.5c-2.7,5.3-4.3,11.3-4.3,17.7
		c0,2.8,0.3,5.7,1,8.6l0,0c1.6,7,3.6,13.1,6.1,18.4c3.7,8,8.4,14.2,13.6,18.8c4,3.6,8.3,6.3,12.6,8.2c3.8,10.3,7.6,19,11.6,26.5
		c4,7.4,8.2,13.6,12.8,18.8c1.6,7.3,2.8,14.5,2.8,22.8c0,2.8-0.1,5.7-0.5,8.8c-0.3,3-1,5.6-1.9,7.9c-1.4,3.5-3.5,6.5-6.3,9.3
		s-6.4,5.4-10.7,7.8s-9.3,4.7-14.8,6.9c-9.5,3.9-20.4,7.5-31.4,11.9c-8.3,3.3-16.6,7-24.6,11.8c-6,3.5-11.8,7.6-17,12.4
		c-7.9,7.3-14.8,16.3-19.5,27.5c-4.8,11.2-7.4,24.5-7.4,40.2c0,2.2,0.5,4.3,1.2,6.3c0.7,1.8,1.7,3.5,2.8,5.1c2.2,3,5,5.6,8.5,8.2
		c6,4.5,14.1,8.6,24.5,12.6c15.6,5.9,36.5,11.1,63.5,15c27,3.8,60.1,6.2,100.1,6.2c34.6,0,64.1-1.8,89-4.8
		c18.6-2.2,34.6-5.1,48.2-8.5c10.2-2.5,19-5.2,26.6-8.1c5.7-2.2,10.7-4.4,15-6.7c3.3-1.7,6.1-3.5,8.7-5.3c3.8-2.8,6.9-5.6,9.2-8.8
		c1.2-1.6,2.1-3.3,2.8-5.2c0.7-1.8,1.1-3.9,1.1-6C456.6,447.9,455.3,438.3,453,429.8z M327.1,358.4L277,436.6l-5.6-38.4l14.2-15
		l-9.2-15.3l38.8-20.4c1.1,1.4,2.2,2.7,3.4,3.9C321.3,354,324.1,356.3,327.1,358.4z M188.7,264.6c-3.9-7.3-7.8-16.4-11.8-27.7
		l-1.3-3.7l-3.7-1.4c-2.6-0.9-5-2.1-7.4-3.8c-3.6-2.4-7-5.7-10.2-10.7c-3.1-4.9-6-11.5-8-20.5l0,0c-0.4-1.7-0.6-3.3-0.6-4.9
		c0-3.6,0.9-7,2.5-10.2c1.3-2.7,3.2-5.2,5.5-7.5c3.8,5.8,7,10.4,8.2,11.6c3.8,3.8,4.3-5.1,2.5-15.1c-3.3-18.3,5.6-10,28.2-53.9
		c45.1,10,124-37.9,124-37.9s1,21.9,16,41.9c14.3,19,22.4,63.7,22.4,63.7s1.9-3.7,4.8-8.6c1.7,2,3.2,4.2,4.2,6.5
		c1.4,3,2.2,6.3,2.2,9.6c0,1.6-0.2,3.3-0.6,4.9c-1.3,6-3,10.9-5,15c-2.9,6.1-6.2,10.3-9.6,13.4c-3.5,3.1-7.1,5.1-11,6.5l-3.7,1.3
		l-1.3,3.7c-4,11.3-7.9,20.4-11.8,27.7s-7.8,12.8-11.9,17l-1.6,1.7l-0.5,2.3c-1.8,8.3-3.6,17.6-3.6,28.5c0,3.4,0.2,6.9,0.5,10.6
		c0.5,4.3,1.4,8.4,2.9,12.2c0.1,0.2,0.2,0.3,0.2,0.5L258.6,364l-56.3-26.1c1.7-4.1,2.9-8.5,3.4-13.3l0,0c0.4-3.7,0.5-7.2,0.5-10.6
		c0-10.9-1.8-20.2-3.6-28.5l-0.5-2.3l-1.6-1.7C196.5,277.3,192.6,271.9,188.7,264.6z M188.3,355.9c2.9-2.3,5.6-5,8-7.9l42.9,19.9
		l-9.2,15.3l14.2,15l-5.3,36.1l-54.8-75.5C185.6,357.9,186.9,356.9,188.3,355.9z M439.4,459.5c-0.6,0.9-1.9,2.5-4.1,4.3
		c-1.9,1.6-4.5,3.3-7.8,5.1c-5.7,3.1-13.5,6.4-23.3,9.5c-14.8,4.7-34.2,8.9-58.8,12c-24.6,3.1-54.2,5-89.5,5c-34,0-62.9-1.8-87-4.7
		c-18.1-2.2-33.4-5-46.3-8.1c-9.6-2.3-17.8-4.9-24.6-7.5c-5.1-2-9.5-3.9-13-5.8c-2.7-1.4-4.9-2.9-6.8-4.2c-2.7-2-4.5-3.8-5.4-5
		c-0.4-0.6-0.7-1-0.8-1.3c0-0.1,0-0.2,0-0.2c0-9.4,1.1-17.4,2.9-24.3c1.6-6.1,3.8-11.4,6.5-16c4.7-8.2,10.9-14.6,18.3-20
		c5.5-4.1,11.7-7.5,18.2-10.7c9.8-4.7,20.4-8.4,30.8-12.3c8.8-3.2,17.4-6.5,25.3-10.5L260.6,484l76.6-119.6c3.8,2,7.8,3.8,11.9,5.5
		c10.3,4.2,21.2,7.9,31.8,12.1c7.9,3.1,15.6,6.5,22.6,10.6c5.3,3.1,10.1,6.5,14.5,10.4c6.5,5.9,11.8,12.9,15.7,21.8
		c3.8,8.9,6.2,19.9,6.2,33.9C439.8,458.7,439.7,459,439.4,459.5z"/>
	<rect x="318.6" y="449.2" class="st1" width="66.9" height="11.7"/>
</g>
</svg>
