<?xml version="1.0" encoding="utf-8"?>
<!-- Generator: Adobe Illustrator 18.0.0, SVG Export Plug-In . SVG Version: 6.00 Build 0)  -->
<!DOCTYPE svg PUBLIC "-//W3C//DTD SVG 1.1//EN" "http://www.w3.org/Graphics/SVG/1.1/DTD/svg11.dtd">
<svg version="1.1" id="_x31_0" xmlns="http://www.w3.org/2000/svg" xmlns:xlink="http://www.w3.org/1999/xlink" x="0px" y="0px"
	 viewBox="0 0 512 512" style="enable-background:new 0 0 512 512;" xml:space="preserve">
<style type="text/css">
	.st0{fill:#ffffff;}
</style>
<g>
	<path class="st0" d="M256,0C114.617,0,0,114.614,0,256s114.617,256,256,256c141.386,0,256-114.614,256-256S397.386,0,256,0z
		 M286.934,385.086c0,6.864-5.586,12.446-12.453,12.446h-26.618c-6.859,0-12.446-5.582-12.446-12.446v-26.625
		c0-6.863,5.586-12.445,12.446-12.445h26.618c6.867,0,12.453,5.582,12.453,12.445V385.086z M284.317,280.481v39.011h-45.875v-48.625
		c0-21.488,20.078-29.539,36.21-36.008c9.485-3.805,27.118-10.867,27.118-16.867v-25.39c0-3.246-0.641-6.394-1.898-9.359
		c-1.226-2.887-2.992-5.5-5.25-7.758c-2.25-2.25-4.859-4.015-7.75-5.246c-2.969-1.258-6.118-1.898-9.359-1.898h-43.016
		c-3.25,0-6.398,0.641-9.359,1.898c-2.894,1.23-5.504,2.996-7.754,5.246c-2.234,2.234-3.989,4.817-5.215,7.672
		c-0.508,1.73-1.938,14.43-1.938,21.394v29.809h-45.871V204.55c0-0.262,0.324-26.941,5.551-39.242
		c3.539-8.332,8.594-15.821,15.031-22.258c6.43-6.43,13.918-11.488,22.258-15.031c8.668-3.683,17.851-5.55,27.297-5.55h43.016
		c9.445,0,18.625,1.867,27.297,5.55c8.328,3.535,15.812,8.594,22.25,15.031c6.43,6.434,11.492,13.922,15.031,22.254
		c3.688,8.679,5.555,17.863,5.555,27.297v25.39c0,16.898-8.047,31.726-23.266,42.887c-10.43,7.648-22.227,12.378-32.641,16.55
		C289.473,278.34,286.73,279.438,284.317,280.481z"/>
</g>
</svg>
