<?xml version="1.0" encoding="UTF-8" standalone="no"?>
<!-- Created with Inkscape (http://www.inkscape.org/) -->

<svg
   xmlns:svg="http://www.w3.org/2000/svg"
   xmlns="http://www.w3.org/2000/svg"
   version="1.0"
   width="580"
   height="580"
   id="svg2">
  <defs
     id="defs5" />
  <path
     d="M 290,20 C 281.75,179.75 273.50439,209.4956 241.5,241.5 213.39028,269.60971 188.25,285 19,290 c 169.25,9.25 194.39028,20.39029 222.5,48.5 32.00439,32.0044 42.25,63 48.5,221.5 8.75,-158.25 16.49561,-189.4956 48.5,-221.5 C 366.60972,310.39029 393,296 561,290 391.5,283.25 366.23472,270.10971 338.125,242 306.12061,209.9956 295.75,179.75 290,20 z M 479.78125,99.3125 357.71875,191.5 C 356.60894,194.2622 356,197.27992 356,200.4375 c 0,13.248 10.752,24 24,24 2.87385,0 5.63283,-0.50987 8.1875,-1.4375 l 0.0625,0.0625 91.53125,-123.75 z M 99,99.96875 l 92.1875,122.0625 c 2.7622,1.1098 5.77993,1.71875 8.9375,1.71875 13.248,0 24,-10.752 24,-24 0,-2.87385 -0.50986,-5.63284 -1.4375,-8.1875 L 222.75,191.5 99,99.96875 z M 380.5,356.3125 c -13.248,0 -24,10.75201 -24,24 0,3.15758 0.60894,6.1753 1.71875,8.9375 l 122.0625,92.1875 -91.53125,-123.75 -0.0625,0.0625 c -2.55467,-0.92763 -5.31365,-1.4375 -8.1875,-1.4375 z m -181.125,0.65625 c -3.15757,0 -6.1753,0.60896 -8.9375,1.71875 L 98.25,480.75 222,389.21875 l -0.0625,-0.0625 c 0.92764,-2.55466 1.4375,-5.31364 1.4375,-8.1875 0,-13.248 -10.752,-23.99999 -24,-24 z"
     id="path2389"
     style="fill:#2FB589;fill-opacity:1;stroke:none;" />
</svg>
