<?xml version="1.0" encoding="utf-8"?>
<!-- Generator: Adobe Illustrator 22.1.0, SVG Export Plug-In . SVG Version: 6.00 Build 0)  -->
<svg version="1.1" id="レイヤー_1" xmlns="http://www.w3.org/2000/svg" xmlns:xlink="http://www.w3.org/1999/xlink" x="0px"
	 y="0px" viewBox="0 0 26.2 20.9" style="enable-background:new 0 0 26.2 20.9;" xml:space="preserve">
<style type="text/css">
	.st0{opacity:0.6;fill:#FFFFFF;stroke:#000000;stroke-width:1.4173;stroke-miterlimit:10;}
</style>
<path class="st0" d="M15.5,0.8c-4.4,0-8.1,3-9.3,7l-4.6,2L6,12.3c0.9,4.4,4.8,7.8,9.4,7.8c5.3,0,9.6-4.3,9.6-9.6S20.8,0.8,15.5,0.8z
	"/>
<path d="M16.7,15.7c0,0.7-0.6,1.3-1.3,1.3c-0.7,0-1.3-0.6-1.3-1.3c0-0.7,0.6-1.3,1.3-1.3C16.1,14.4,16.7,14.9,16.7,15.7z M18.1,5.3
	c-0.6-0.6-1.6-1-2.6-1c-2.3,0-3.7,1.6-3.7,4.1h2.1c0-1.5,0.9-2.1,1.6-2.1c0.7,0,1.4,0.4,1.4,1.3c0.1,0.9-0.4,1.3-1,1.9
	c-1.5,1.4-1.5,2.1-1.5,3.6h2.1c0-0.7,0-1.2,1-2.3C18.1,10,19,9.1,19,7.7C19,6.7,18.7,5.9,18.1,5.3z"/>
</svg>
